<?xml version="1.0" standalone="no"?>
<!DOCTYPE svg PUBLIC "-//W3C//DTD SVG 1.1//EN" "http://www.w3.org/Graphics/SVG/1.1/DTD/svg11.dtd" >
<svg xmlns="http://www.w3.org/2000/svg">
<metadata>Generated by IcoMoon</metadata>
<defs>
<font id="icomoon" horiz-adv-x="1024">
<font-face units-per-em="1024" ascent="960" descent="-64" />
<missing-glyph horiz-adv-x="1024" />
<glyph unicode="&#x20;" horiz-adv-x="512" d="" />
<glyph unicode="&#xe900;" glyph-name="logo" horiz-adv-x="3918" d="M1034.691 465.436v40.98c0 63.889 0 78.906 25.454 119.123 22.975 35.518 62.387 58.693 107.213 58.693 3.565 0 7.096-0.147 10.586-0.434 0.409 0.060 1.428 0.077 2.45 0.077 16.746 0 32.428-4.555 45.875-12.495l-0.421-65.44c-9.371 4.947-20.482 7.851-32.271 7.851-9.661 0-18.866-1.95-27.244-5.478-39.755-17.899-46.373-34.444-46.373-101.642v-40.98h105.887v-68.979h-105.887v-336.752h-85.27v336.497zM1353.116 567.25c-25.365 0.288-45.816 20.917-45.816 46.323 0 25.585 20.741 46.326 46.326 46.326 25.494 0 46.179-20.594 46.325-46.054 0.002-0.166 0.003-0.346 0.003-0.526 0-25.444-20.627-46.071-46.071-46.071-0.18 0-0.36 0.001-0.539 0.003zM1395.878 59.959h-84.506v405.477h84.506zM1798.045 393.147l-203.629-264.209h203.629v-68.979h-291.19v76.361l203.629 259.373h-203.629v69.743h291.19zM2187.995 393.147l-203.629-264.209h203.629v-68.979h-291.444v76.361l203.629 259.373h-203.629v69.743h292.462zM2659.142 59.959h-85.27v225.519c0 81.961-21.381 118.105-91.124 118.105-78.906 0-106.651-54.98-106.651-127.268v-217.629h-83.742v406.749h84.506v-65.416c19.235 41.236 59.331 69.827 106.346 72.276 79.974 5.612 136.481-20.605 161.935-86.275 18.568 49.67 64.941 84.702 119.698 86.284 110.149 8.149 175.819-45.049 175.819-178.171v-233.919h-84.506v225.265c0 81.961-21.381 118.105-91.124 118.105s-100.033-44.289-105.887-109.96zM3439.805 261.807c0-116.538-94.473-211.011-211.011-211.011s-211.011 94.473-211.011 211.011c0 116.538 94.473 211.011 211.011 211.011 0.992 0.017 2.163 0.027 3.336 0.027 114.71 0 207.702-92.991 207.702-207.702 0-1.173-0.010-2.344-0.029-3.512zM3102.544 261.807c0-81.961 56.507-141.268 127.268-141.268s127.268 59.052 127.268 141.268-56.507 141.268-127.268 141.268-127.523-58.289-127.523-141.268zM3716.232 472.817c43.956-0.876 84.322-15.547 117.129-39.843l-0.551 242.454h85.27v-615.469h-85.27v30.29c-32.324-23.641-72.707-38.053-116.426-38.688-1.047-0.016-2.103-0.024-3.162-0.024-110.915 0-200.829 89.914-200.829 200.829 0 3.231 0.076 6.444 0.227 9.637-0.165 2.44-0.25 5.827-0.25 9.234 0 111.337 90.256 201.593 201.593 201.593 0.798 0 1.595-0.005 2.39-0.014zM3724.631 120.030c1.302-0.052 2.831-0.082 4.367-0.082 45.463 0 84.807 26.195 103.763 64.316 11.696 22.559 18.379 48.464 18.379 75.931 0 0.388-0.001 0.776-0.004 1.163-0.057 27.781-6.727 54.051-18.522 77.28-18.784 37.258-57.712 63.034-102.659 63.034-1.872 0-3.734-0.045-5.584-0.133-68.718 0.010-125.225-58.279-125.225-141.258s56.507-140.25 125.486-140.25zM425.839 960c-24.601 0-44.544-19.943-44.544-44.544s19.943-44.544 44.544-44.544c24.601 0 44.544 19.943 44.544 44.544s-19.943 44.544-44.544 44.544zM317.661 845.713c-15.182 0-27.49-12.308-27.49-27.49s12.308-27.49 27.49-27.49c15.182 0 27.49 12.308 27.49 27.49s-12.308 27.49-27.49 27.49zM378.241 384.748c-63.125 0-116.832-27.999-116.832-61.343s53.453-61.343 116.832-61.343 116.832 28.508 116.832 61.598-53.453 61.343-116.832 61.343zM721.865 202.754l-220.938 329.116v148.14h26.981c0.719-0.081 1.553-0.127 2.398-0.127 12.511 0 22.654 10.142 22.654 22.654s-10.142 22.654-22.654 22.654c-0.845 0-1.679-0.046-2.499-0.136l-295.925 0.009c-11.437-1.253-20.256-10.86-20.256-22.526s8.819-21.273 20.154-22.517l27.082-0.009v-148.395l-220.429-327.588c-2.036-3.054-52.944-71.016-34.362-139.231 13.437-41.571 45.238-73.79 85.587-87.532 4.264-2.064 85.462-41.263 290.363-41.263s286.099 39.199 287.881 40.217c41.9 13.943 74.245 46.371 87.792 87.355 18.604 69.44-32.303 137.655-33.576 139.437zM711.938 75.486c-11.165-27.689-33.97-48.658-62.186-57.095s-77.046-36.32-269.984-36.32-268.281 36.144-270.572 36.144c-28.752 8.95-51.271 30.3-61.633 57.631-12.946 47.493 25.235 100.436 27.525 102.473l225.010 334.461c2.392 3.536 3.818 7.895 3.818 12.587 0 0.049 0 0.098 0 0.148v154.496h152.722v-155.267c-0.001-0.087-0.002-0.19-0.002-0.293 0-4.642 1.428-8.95 3.869-12.509l225.47-335.404s38.944-53.453 26.726-100.033zM626.16 165.337v1.782l-87.051 129.559c-5.986-22.436-20.054-40.897-38.821-52.472 12.232-8.583 20.496-22.626 20.748-38.614 0-26.255-21.253-47.509-47.471-47.509s-47.471 21.254-47.471 47.471c0.296 3.738 1.019 7.2 2.125 10.487-14.701-3.209-31.505-4.876-48.697-4.887-84.261 0-150.44 36.144-160.876 85.27l-86.797-129.304-1.273-2.036c-12.491-16.219-20.019-36.821-20.019-59.181 0-3.181 0.152-6.326 0.45-9.429 7.689-17.318 22.786-30.578 41.27-35.646l2.988-0.104s63.889-29.017 223.992-29.017 223.992 29.017 224.501 29.272h2.036c18.618 5.375 33.414 18.586 40.823 35.735 0.35 2.714 0.46 5.397 0.46 8.106 0 22.935-7.879 44.029-21.077 60.725zM416.676 83.886c-14.058 0-25.454 11.396-25.454 25.454s11.396 25.454 25.454 25.454c14.058 0 25.454-11.396 25.454-25.454s-11.396-25.454-25.454-25.454z" />
<glyph unicode="&#xe901;" glyph-name="logo2" horiz-adv-x="4671" d="M0 606.259v66.552c0 103.776 0 127.69 39.931 192.888 42.413 70.387 111.672 94.301 190.181 94.301 1.419 0.049 3.086 0.077 4.76 0.077 27.174 0 52.62-7.403 74.429-20.303l-0.68-106.111c-15.134 8.054-33.095 12.784-52.159 12.784-15.699 0-30.65-3.207-44.232-9.002-64.688-29.049-75.291-55.67-75.291-164.635v-66.552h171.456v-112.8h-171.456v-544.148h-136.939v545.276zM515.948 771.173c-41.149 0.121-74.46 33.507-74.46 74.673 0 0.476 0.004 0.951 0.013 1.425 0.384 41.126 33.869 74.374 75.121 74.374 41.49 0 75.125-33.635 75.125-75.125s-33.635-75.125-75.125-75.125c-0.237 0-0.473 0.001-0.71 0.003zM584.982-50.69h-136.939v656.948h136.939zM1236.741 489.172l-331.181-428.641h331.181v-112.8h-472.182v126.562l329.828 420.293h-329.828v112.8h472.182zM1868.422 489.172l-331.181-428.641h330.956v-112.8h-471.956v126.562l329.828 420.293h-329.828v112.8h471.956zM2631.628-50.69h-138.293l1.354 5.414v360.961c0 132.879-34.742 191.535-147.543 191.535-127.69 0-172.81-90.24-172.81-204.845v-353.065h-137.165v656.948h136.939v-106.483c18.725 58.656 94.527 112.8 172.81 117.087 129.043 9.25 220.637-33.163 261.922-139.647 27.974 90.24 117.087 135.36 194.242 139.647 178.224 13.31 284.482-73.095 284.482-288.543v-379.009h-136.939v365.698c0 132.879-34.517 191.535-147.543 191.535s-162.207-71.741-171.456-178.224zM3896.118 276.431c0-188.762-153.022-341.785-341.785-341.785s-341.785 153.022-341.785 341.785c0 188.762 153.022 341.785 341.785 341.785s341.785-153.022 341.785-341.785zM3349.488 276.431c0-132.879 91.819-228.759 204.845-228.759s204.845 95.655 204.845 228.759-91.819 228.759-204.845 228.759-204.845-94.527-204.845-228.759zM4344.16 618.215c71.227-1.684 136.566-25.554 189.725-64.931l-0.898 393.406h138.293v-997.379h-138.293v49.181c-52.399-38.167-117.796-61.437-188.576-62.488-189.079-0.003-328.726 144.156-328.726 340.428s139.647 341.785 328.474 341.785zM4357.471 47.672c2.097-0.084 4.558-0.132 7.031-0.132 73.616 0 137.322 42.431 167.996 104.171 18.979 36.573 29.823 78.576 29.823 123.112 0 0.565-0.002 1.13-0.005 1.694 0.001 0.109 0.001 0.34 0.001 0.572 0 45.316-10.836 88.101-30.058 125.905-30.371 60.507-93.504 102.383-166.417 102.383-2.944 0-5.872-0.068-8.783-0.203-112.388 0.015-202.628-94.286-202.628-228.744s91.368-228.759 203.040-228.759z" />
<glyph unicode="&#xe902;" glyph-name="menu" horiz-adv-x="1372" d="M1370.047 819.902h-1370.047v140.098h1370.047zM1370.047 518.049h-1370.047v-140.098h1370.047zM1370.047 76.098h-1370.047v-140.098h1370.047z" />
<glyph unicode="&#xe903;" glyph-name="cruzmenu" d="M1024 865.177l-94.823 94.823-416.966-417.389-417.389 417.389-94.823-94.823 417.389-417.389-417.389-416.966 94.823-94.823 417.389 416.966 416.966-416.966 94.823 94.823-416.966 416.966 416.966 417.389z" />
<glyph unicode="&#xe904;" glyph-name="atrasmenu" horiz-adv-x="2034" d="M2034.1 511.394h-1751.457l440.602 349.617-78.769 98.988-644.476-511.789 644.476-512.211 78.769 98.988-440.602 350.039h1751.457v126.368z" />
<glyph unicode="&#xe905;" glyph-name="facebook" horiz-adv-x="587" d="M412.694 904.933c24.131 0 48.261 0 72.392 0s32.174-6.806 47.024-6.806v-147.258h-98.997c-38.98 0-67.442-16.087-68.679-61.873 0-35.268 0-116.94 0-116.94h162.726l-21.037-168.914h-139.833v-412.694h-171.389v412.694h-139.833v165.82h141.071v12.375c0 33.411 0 66.204 0 98.997 0.184 21.989 1.977 43.404 5.267 64.322 7.135 48.635 34.463 92.217 73.42 120.938 34.313 23.99 76.277 38.119 121.54 38.119 0.955 0 1.909-0.006 2.861-0.019l14.705 0.002zM413.931 958.763h-16.706c-0.725 0.007-1.582 0.011-2.44 0.011-56.667 0-109.225-17.593-152.509-47.616-49.971-36.505-85.257-92.309-94.858-156.51-3.76-22.464-5.997-47.059-6.344-72.111-0.004-19.528-0.004-39.327-0.004-58.508h-86.004c-30.413 0-55.067-24.654-55.067-55.067v-165.82c0-30.413 24.654-55.067 55.067-55.067h84.766v-358.864c0-30.413 24.654-55.067 55.067-55.067h171.389c30.413 0 55.067 24.654 55.067 55.067v360.102h84.766c27.746 0.060 50.669 20.631 54.415 47.352l8.077 62.164 13.612 105.184c0.269 2.044 0.422 4.407 0.422 6.806 0 30.344-24.543 54.955-54.86 55.067h-107.051c0 21.656 0 45.786 0 61.873-0.226 1.487-0.355 3.204-0.355 4.95s0.129 3.462 0.379 5.139l-0.023-0.19c2.127 0.134 4.612 0.211 7.115 0.211s4.989-0.077 7.454-0.228l96.802 0.017c30.413 0 55.067 24.654 55.067 55.067v145.402c-0.179 28.31-21.692 51.539-49.26 54.428l-14.469 0.020-35.268 7.425h-4.331c-23.512 0-47.642 0-71.154 0z" />
<glyph unicode="&#xe906;" glyph-name="instagram" d="M704.881 902.969c0.577 0.005 1.259 0.007 1.942 0.007 143.685 0 260.165-116.48 260.165-260.165 0-1.129-0.007-2.257-0.022-3.383l0.002-384.309c0.005-0.573 0.007-1.251 0.007-1.93 0-143.685-116.48-260.165-260.165-260.165-0.679 0-1.356 0.003-2.034 0.008l-384.376-0.001c-0.955-0.013-2.082-0.020-3.211-0.020-143.685 0-260.165 116.48-260.165 260.165 0 0.683 0.003 1.365 0.008 2.047l-0.001 384.376c-0.013 0.959-0.020 2.090-0.020 3.224 0 143.685 116.48 260.165 260.165 260.165 1.134 0 2.266-0.007 3.396-0.022l384.309 0.002zM704.881 960h-384.481c-176.952 0-320.401-143.448-320.401-320.401v-384.481c0-176.952 143.448-320.401 320.401-320.401h384.481c176.952 0 320.401 143.448 320.401 320.401v384.481c0 176.952-143.448 320.401-320.401 320.401zM512.641 647.289c109.788-0.365 198.647-89.449 198.647-199.288 0-110.064-89.225-199.289-199.289-199.289-109.839 0-198.923 88.859-199.288 198.612-0.001 0.226-0.001 0.451-0.001 0.677 0 110.064 89.225 199.289 199.289 199.289 0.226 0 0.451 0 0.677-0.001zM512.641 703.68c-141.562 0-256.32-114.759-256.32-256.32s114.759-256.32 256.32-256.32c141.562 0 256.32 114.759 256.32 256.32s-114.759 256.32-256.32 256.32zM808.691 779.935c-31.498 0-57.031-25.534-57.031-57.031s25.534-57.031 57.031-57.031c31.498 0 57.031 25.534 57.031 57.031 0 0.001 0 0.002 0 0.004 0 31.498-25.534 57.031-57.031 57.031-0.225 0-0.45-0.001-0.675-0.004z" />
<glyph unicode="&#xe907;" glyph-name="twitter" horiz-adv-x="1230" d="M834.216 898.129c62.231-0.918 118.1-27.41 157.703-69.408 2.14-2.51 5.091-4.080 8.412-4.279l3.509-0.002c49.882 10.969 94.019 28.486 134.28 51.929l-2.196-1.181c-17.699-49.798-50.255-90.666-92.275-118.332 46.024 4.982 88.781 16.984 128.466 34.642l-2.822-1.122c-9.037-11.123-17.379-22.941-26.417-34.064-24.303-29.621-51.477-55.471-81.5-77.689-3.722-2.16-5.398-4.724-5.398-7.679 0-0.049 0-0.098 0.001-0.147 0.309-7.336 0.484-15.952 0.484-24.61 0-26.852-1.692-53.309-4.974-79.271-9.15-72.078-29.705-140.375-59.809-203.226-30.776-65.096-72.002-124.331-121.492-175.526-82.261-86.092-189.475-148.052-310.029-174.268-41.487-9.222-84.991-14.727-129.555-16.004l-20.447-0.022c-126.267 0.084-243.992 36.588-343.258 99.573l-2.942-1.553c7.995-0.457 17.35-0.717 26.764-0.717s18.768 0.26 28.055 0.774c104.929 0.981 202.238 38.285 279.055 100.040-98.327 3.033-179.814 67.358-208.975 155.508 12.059-1 26.464-2.516 41.215-2.56 19.812 0.061 38.97 2.593 57.254 7.303l-1.606-0.351c-62.559 13.638-114.408 51.619-146.12 103.29-21.528 34.169-33.97 74.551-33.97 117.838 0 1.445 0.014 2.887 0.041 4.325 29.668-16.958 64.994-27.161 102.628-28.018-46.677 32.437-80.487 80.985-93.303 137.504-4.055 16.941-6.213 34.637-6.213 52.837 0 41.519 11.234 80.415 30.828 113.813 112.087-138.084 277.869-227.877 464.835-238.73 1.751 8.956 1.751 16.603-1.724 24.945-1.231 8.75-1.934 18.859-1.934 29.131 0 44.465 13.169 85.854 35.819 120.479 32.889 53.403 88.108 91.46 152.612 101.2 7.343 0.679 14.491 0.982 21.709 0.982s14.366-0.302 21.431-0.895zM1138.010 876.578v0zM834.216 960c-17.945-0.033-35.512-1.549-52.615-4.431-83.017-11.731-154.518-60.557-196.963-129.239-26.549-40.544-42.818-88.269-45.157-139.626-144.439 24.734-267.89 100.211-354.408 206.866-11.676 14.418-27.758 23.123-45.893 24.019l-7.792 0.006c-20.654-2.062-38.131-14.008-47.808-30.979-24.21-41.274-38.413-90.538-38.413-143.12 0-23.322 2.794-45.992 8.067-67.693 4.35-16.618 10.057-32.583 17.034-47.846-15.47-9.483-24.91-27.037-25.081-46.802-0.022-1.334-0.034-2.875-0.034-4.419 0-55.258 15.802-106.825 43.133-150.429 11.795-19.028 25.569-36.56 41.069-52.396-2.117-5.856-3.31-12.668-3.31-19.759s1.193-13.903 3.389-20.247c19.472-64.368 59.745-117.938 112.883-153.954-37.065-14.294-80.979-22.188-126.737-22.188-0.308 0-0.615 0-0.923 0.001-6.909-0.385-15.049-0.604-23.241-0.604s-16.332 0.219-24.416 0.652l-5.129-0.048c-33.899-0.356-61.242-27.919-61.242-61.868 0-20.925 10.387-39.423 26.287-50.62l8.538-5.692c104.857-65.053 232.063-103.611 368.275-103.611 2.26 0 4.517 0.011 6.772 0.032l21.901-0.003c49.993 1.334 97.812 7.343 144.025 17.616 131.004 28.859 248.079 96.392 338.227 190.031 53.92 56.007 98.868 120.743 132.509 191.872 32.727 68.907 55.011 143.804 64.766 222.585 3.459 27.867 5.228 55.99 5.228 84.526 0 0.618-0.001 1.236-0.002 1.854 25.596 21.056 48.366 43.826 68.834 68.571l20.149 25.878 11.123 12.513c7.598 10.313 12.161 23.27 12.161 37.292 0 25.757-15.393 47.918-37.481 57.787l-0.402 8.502c3.371 7.394 5.337 16.036 5.337 25.137 0 32.868-25.63 59.751-57.994 61.752l-0.176 0.009c-11.579-0.535-22.284-3.822-31.618-9.216l0.335 0.179c-25.949-15.049-55.954-27.851-87.559-36.854-50.718 39.556-113.062 64.003-181.116 64.003-1.593 0-3.183-0.013-4.77-0.040z" />
<glyph unicode="&#xe908;" glyph-name="scroll" horiz-adv-x="648" d="M324.436-64c-179.181 0-324.436 145.255-324.436 324.436v375.129c0 179.181 145.255 324.436 324.436 324.436s324.436-145.255 324.436-324.436v-375.534c-0.231-179.006-145.397-324.030-324.435-324.030zM324.436 929.584c-162.383 0-294.020-131.637-294.020-294.020v-375.534c0-162.383 131.637-294.020 294.020-294.020s294.020 131.637 294.020 294.020v375.534c0 162.383-131.637 294.020-294.020 294.020zM339.644 545.939v202.772c0 8.399-6.809 15.208-15.208 15.208s-15.208-6.809-15.208-15.208v-202.772c0-8.399 6.809-15.208 15.208-15.208s15.208 6.809 15.208 15.208z" />
<glyph unicode="&#xe909;" glyph-name="logo3" horiz-adv-x="760" d="M470.534 915.478c0-24.589-19.933-44.522-44.522-44.522s-44.522 19.933-44.522 44.522c0 24.589 19.933 44.522 44.522 44.522s44.522-19.933 44.522-44.522zM317.763 845.64c-15.107 0-27.353-12.246-27.353-27.353s12.246-27.353 27.353-27.353c15.107 0 27.353 12.246 27.353 27.353 0.001 0.087 0.002 0.189 0.002 0.291 0 15.107-12.246 27.353-27.353 27.353-0.001 0-0.001 0-0.002 0zM378.289 385c-63.145 0-116.397-29.099-116.397-61.399s53.251-61.981 116.397-61.981 116.397 29.099 116.397 61.399-52.961 61.981-116.397 61.981zM756.579 64.909c-13.965-41.367-45.93-73.333-86.33-87.013-3.005-0.285-83.901-40.732-289.050-40.732s-286.045 39.284-289.246 41.030c-41.516 13.714-73.584 45.782-87.023 86.34-19.48 68.468 31.443 136.56 33.48 138.888l220.572 328.53v148.406h-26.189c-11.382 1.333-20.132 10.921-20.132 22.552s8.749 21.219 20.025 22.542l295.172 0.010c0.77 0.093 1.662 0.145 2.566 0.145 12.535 0 22.697-10.162 22.697-22.697s-10.162-22.697-22.697-22.697c-0.904 0-1.796 0.053-2.672 0.156l-26.956-0.010v-148.406l221.154-328.53c1.455-2.328 52.379-70.42 34.628-138.512zM685.868 176.941l-226.101 335.513c-2.369 3.469-3.783 7.755-3.783 12.37 0 0.050 0 0.1 0 0.15v155.382h-151.898v-155.39c-0.007-4.662-1.419-8.993-3.835-12.594l-224.885-334.559c0-1.455-40.448-54.706-27.644-101.265 10.575-27.917 33.023-49.22 61.012-58.015 2.715-0.184 78.955-36.849 271.3-36.849s268.585 35.792 269.167 36.083c29.17 8.756 52.127 30.090 62.917 57.541 12.74 47.798-26.252 101.050-26.834 101.632zM646.002 96.918c-7.535-17.483-22.231-30.655-40.292-35.97l-2.483-0.113s-64.6-29.099-224.646-29.099-224.064 29.099-224.064 29.099h-2.619c-18.626 5.351-33.436 18.542-40.872 35.675-0.421 3.096-0.571 6.218-0.571 9.375 0 22.465 7.599 43.155 20.367 59.64l-0.166 1.814 87.298 129.491c10.185-48.887 76.531-85.552 159.463-85.552 17.211 0.039 34.003 1.732 50.255 4.928-2.68-3.255-3.403-6.719-3.687-10.307-0.010-26.346 21.226-47.582 47.422-47.582s47.432 21.236 47.432 47.432c-0.223 15.987-8.419 30.012-20.783 38.304 18.908 11.909 32.91 30.365 38.687 52.167l87.435-128.882v-1.746c13.731-16.743 22.054-38.38 22.054-61.961 0-2.362-0.084-4.705-0.248-7.026zM442.307 108.267c0 13.339-10.813 24.152-24.152 24.152s-24.152-10.813-24.152-24.152c0-13.339 10.813-24.152 24.152-24.152 12.613 0.784 22.563 11.139 22.697 23.848z" />
<glyph unicode="&#xe90a;" glyph-name="menu-mobile" horiz-adv-x="1441" d="M1440.901 863.94h-1440.901v96.060h1440.901zM1440.901 496.030h-1440.901v-96.060h1440.901zM1440.901 32.060h-1440.901v-96.060h1440.901z" />
<glyph unicode="&#xe90b;" glyph-name="cruz-mobile" d="M1024 896.198l-64.255 63.802-447.972-447.972-447.972 447.972-63.802-63.802 447.972-447.972-447.972-447.972 63.802-64.255 447.972 447.972 447.972-447.972 64.255 64.255-447.972 447.972 447.972 447.972z" />
<glyph unicode="&#xe90c;" glyph-name="scroll-mobile" horiz-adv-x="2263" d="M1131.676-64c-1.079-0.052-2.344-0.081-3.616-0.081-19.543 0-37.465 6.942-51.434 18.495l-1050.783 861.3c-17.568 15.207-28.617 37.539-28.617 62.452 0 45.539 36.916 82.455 82.455 82.455 20.626 0 39.483-7.573 53.942-20.091l1000.208-820.404 998.158 821.569c14.355 12.43 33.212 20.003 53.838 20.003 45.539 0 82.455-36.916 82.455-82.455 0-24.913-11.049-47.245-28.513-62.364l-1055.33-862.574c-13.82-11.404-31.711-18.32-51.218-18.32-0.543 0-1.084 0.005-1.624 0.016z" />
<glyph unicode="&#xe90d;" glyph-name="flecha-writeus" horiz-adv-x="1628" d="M982.586 960l-82.828-104.871 428.838-340.665h-1328.595v-133.594h1328.595l-428.838-340.665 82.828-104.204 645.26 511.666-645.26 512.334z" />
<glyph unicode="&#xe90e;" glyph-name="backmenu-mobile" horiz-adv-x="1640" d="M1639.745 502.072h-1396.552l469.312 372.552-67.784 85.376-644.722-511.741 644.722-512.259 67.784 85.376-469.312 372.034h1396.552v108.661z" />
<glyph unicode="&#xe90f;" glyph-name="comillas-open" horiz-adv-x="1324" d="M367.645 960l195.717-156.79c-129.682-76.067-227.758-194.114-276.579-335.156 16.911 2.653 38.002 6.724 60.044 6.724 3.519 0 7.014-0.104 10.482-0.308-0.337 0.023-0.171 0.023-0.004 0.023 133.771 0 242.213-108.443 242.213-242.213 0-5.326-0.172-10.612-0.511-15.853-1.772-153.822-126.567-278.617-280.931-280.424-177.539 2.334-320.424 146.663-320.424 324.365 0 13.729 0.853 27.259 2.509 40.539 6.345 274.365 149.711 515.478 364.449 657.212zM1092.122 960l200.042-156.79c-131.034-74.805-229.881-193.295-277.725-335.247 16.975 2.743 38.067 6.814 60.109 6.814 3.519 0 7.014-0.104 10.482-0.308 131.999-0.894 239.038-108.499 239.038-241.104 0-5.709-0.198-11.372-0.589-16.981-0.57-154.266-126.075-279.772-281.040-280.384-167.662 0-313.638 131.92-313.638 364.401 5.261 274.965 147.124 515.698 360.361 657.745z" />
<glyph unicode="&#xe910;" glyph-name="comillas-close" horiz-adv-x="1318" d="M231.504-64l-195.971 162.591c128.73 74.332 225.67 191.533 272.277 331.715-17.424-3.974-39.161-8.753-62.014-8.753-1.618 0-3.231 0.024-4.837 0.072-133.336 1.079-241.198 109.611-241.198 243.335 0 3.79 0.087 7.559 0.258 11.307-0.021-0.19-0.022 0.214-0.022 0.619 0 154.13 123.133 279.5 276.394 283.108 180.324-3.337 324.951-150.032 324.951-330.506 0-11.395-0.577-22.655-1.702-33.752-9.621-273.98-152.215-514.091-365.197-657.865zM952.934-64l-199.201 162.591c130.079 74.722 228.795 191.576 278.613 331.614-18.438-3.87-41.414-8.635-65.503-8.635-1.483 0-2.962 0.018-4.437 0.054-133.353 1.081-241.215 109.612-241.215 243.336 0 3.79 0.087 7.559 0.258 11.307-0.019-0.526-0.019-0.52-0.019-0.513 0 155.859 125.435 282.422 280.862 284.245 167.070 0.002 316.74-131.363 316.74-362.867-7.512-275.469-149.852-516.152-363.15-659.268z" />
<glyph unicode="&#xe911;" glyph-name="felcha-larga" horiz-adv-x="178" d="M174.859 32.946c-2.012 2-4.785 3.237-7.847 3.237s-5.835-1.236-7.847-3.237l-58.991-58.991v974.915c0 6.147-4.983 11.13-11.13 11.13s-11.13-4.983-11.13-11.13v-974.915l-58.88 58.991c-2.022 2.022-4.816 3.273-7.903 3.273-6.172 0-11.176-5.004-11.176-11.176 0-3.086 1.251-5.88 3.273-7.903l77.913-77.913c2.017-2.034 4.813-3.292 7.903-3.292s5.885 1.259 7.902 3.292l77.914 77.914c2.034 2.017 3.292 4.813 3.292 7.903s-1.259 5.885-3.292 7.902z" />
<glyph unicode="&#xe912;" glyph-name="retail" horiz-adv-x="1228" d="M1010.558 226.826h-415.465c-81.464 0-119.955 91.85-122.196 95.72-0.037 0.397-0.057 0.858-0.057 1.324s0.021 0.927 0.062 1.383l-72.914 340.053v1.629l-42.565 195.717c-14.663 72.095-69.244 66.8-72.299 66.597h-119.548c-8.436 0-15.274 6.839-15.274 15.274s6.839 15.274 15.274 15.274h118.53c27.494 3.055 87.166-11.812 102.848-90.832l40.732-184.516h784.7c0.027 0 0.059 0 0.091 0 8.436 0 15.274-6.839 15.274-15.274 0-1.376-0.182-2.709-0.523-3.977l-90.604-348.966c-19.348-70.874-90.628-89.407-126.065-89.407zM501.41 333.136c4.277-9.572 36.455-75.761 92.869-75.761h415.669c3.259 0 79.020 0 97.146 67.004l85.537 330.132h-759.243zM606.498-64c-58.674 0.348-106.103 47.993-106.103 106.716 0 58.938 47.779 106.718 106.718 106.718 58.651 0 106.252-47.315 106.714-105.857 0.002-0.286 0.003-0.572 0.003-0.859 0-58.868-47.665-106.603-106.506-106.717zM606.498 119.294c-41.803-0.347-75.557-34.315-75.557-76.166 0-42.067 34.102-76.169 76.169-76.169s76.169 34.102 76.169 76.169c0 0.142 0 0.285-0.001 0.427-0.573 41.536-34.341 75.017-75.954 75.128zM1011.373-64c-58.674 0.348-106.103 47.993-106.103 106.716 0 58.938 47.779 106.718 106.718 106.718 58.651 0 106.252-47.315 106.714-105.857 0.002-0.286 0.003-0.572 0.003-0.859 0-58.868-47.665-106.603-106.506-106.717zM1011.373 119.294c-41.803-0.347-75.557-34.315-75.557-76.166 0-42.067 34.102-76.169 76.169-76.169s76.169 34.102 76.169 76.169c0 0.142 0 0.285-0.001 0.427-0.573 41.536-34.341 75.017-75.954 75.128zM336.649 561.642c0 8.436-6.839 15.274-15.274 15.274h-306.1c-8.436 0-15.274-6.839-15.274-15.274s6.839-15.274 15.274-15.274h305.489c0.182-0.008 0.396-0.012 0.611-0.012 8.436 0 15.274 6.839 15.274 15.274 0 0.004 0 0.009 0 0.013zM336.649 454.313c0 8.436-6.839 15.274-15.274 15.274h-209.566c-8.436 0-15.274-6.839-15.274-15.274s6.839-15.274 15.274-15.274h209.566c8.436 0 15.274 6.839 15.274 15.274zM336.649 346.985c0 8.436-6.839 15.274-15.274 15.274h-99.589c-8.436 0-15.274-6.839-15.274-15.274s6.839-15.274 15.274-15.274h99.589c8.436 0 15.274 6.839 15.274 15.274z" />
<glyph unicode="&#xe913;" glyph-name="electronics" horiz-adv-x="1494" d="M1403.307 960h-1313.045c-49.882-0.146-90.262-40.617-90.262-90.519 0 0 0 0 0 0v-726.212c0.146-49.792 40.47-90.116 90.248-90.262h555.216v-77.147h-180.010c-10.652 0-19.287-8.635-19.287-19.287s8.635-19.287 19.287-19.287h563.174c10.652 0 19.287 8.635 19.287 19.287s-8.635 19.287-19.287 19.287h-180.010v77.147h554.688c49.792 0.146 90.116 40.47 90.262 90.248v726.226c0 0 0 0 0 0 0 49.902-40.38 90.373-90.248 90.519zM809.788-25.426h-125.75v77.147h125.75zM1455.253 143.269c0-28.405-23.027-51.431-51.431-51.431h-1313.559c-28.405 0-51.431 23.027-51.431 51.431v726.212c0 28.405 23.027 51.431 51.431 51.431h1313.045c28.405 0 51.431-23.027 51.431-51.431zM925.766 722.901l-414.537-413.766c-3.531-3.781-8.545-6.139-14.11-6.139-10.652 0-19.287 8.635-19.287 19.287 0 5.565 2.357 10.58 6.127 14.1l413.777 413.776c3.556 3.654 8.521 5.92 14.015 5.92 10.797 0 19.549-8.753 19.549-19.549 0-5.303-2.111-10.112-5.539-13.634zM1010.628 557.292c3.485-3.489 5.64-8.308 5.64-13.629s-2.155-10.14-5.641-13.63l-268.215-267.186c-3.435-3.207-8.062-5.176-13.148-5.176-10.652 0-19.287 8.635-19.287 19.287 0 5.087 1.969 9.713 5.187 13.159l267.176 267.175c3.489 3.485 8.308 5.64 13.629 5.64s10.14-2.155 13.63-5.641z" />
<glyph unicode="&#xe914;" glyph-name="home" horiz-adv-x="1274" d="M1047.188 506.667v-553.275c0-9.605-7.786-17.391-17.391-17.391h-231.884c-9.605 0-17.391 7.786-17.391 17.391v383.304c0 27.662-22.425 50.087-50.087 50.087h-186.667c-27.662 0-50.087-22.425-50.087-50.087v-383.304c0-9.605-7.786-17.391-17.391-17.391h-231.884c-9.605 0-17.391 7.786-17.391 17.391v553.275c0 9.605 7.786 17.391 17.391 17.391s17.391-7.786 17.391-17.391v-535.884h197.101v365.913c0 46.872 37.997 84.87 84.87 84.87h186.667c46.872 0 84.87-37.997 84.87-84.87v-365.913h197.101v535.884c0 9.605 7.786 17.391 17.391 17.391s17.391-7.786 17.391-17.391zM1266.319 553.043l-219.13 142.609v180.406c0 9.605-7.786 17.391-17.391 17.391s-17.391-7.786-17.391-17.391v-157.681l-365.913 238.841c-2.681 1.773-5.971 2.829-9.507 2.829s-6.827-1.056-9.572-2.869l-619.529-404.597c-4.799-3.157-7.923-8.518-7.923-14.609 0-9.626 7.804-17.43 17.43-17.43 3.536 0 6.825 1.053 9.573 2.862l610.021 398.336 610.319-398.145c2.682-1.769 5.972-2.821 9.507-2.821 9.626 0 17.43 7.804 17.43 17.43 0 6.091-3.124 11.452-7.857 14.568z" />
<glyph unicode="&#xe915;" glyph-name="clothing" horiz-adv-x="1141" d="M1057.269 631.808c-0.95 8.606-8.181 15.24-16.962 15.24-0.034 0-0.068 0-0.103 0h-230.414v58.913c0.29 4.41 0.455 9.559 0.455 14.748 0 132.157-107.134 239.29-239.29 239.29s-239.29-107.134-239.29-239.29c0-5.188 0.166-10.339 0.491-15.445l-0.035-57.989h-232.695c-0.029 0-0.063 0-0.098 0-8.781 0-16.012-6.634-16.955-15.163l-73.933-677.233c-0.062-0.546-0.098-1.179-0.098-1.82 0-9.421 7.637-17.060 17.060-17.060 0.034 0 0.068 0 0.103 0h1089.997c0.029 0 0.063 0 0.098 0 9.421 0 17.060 7.637 17.060 17.060 0 0.641-0.035 1.274-0.104 1.896zM365.327 705.961c0 113.062 91.655 204.716 204.716 204.716s204.716-91.655 204.716-204.716v-58.685h-409.433zM44.604-29.881l70.968 642.81h215.635v-125.331c0-9.421 7.637-17.060 17.060-17.060s17.060 7.637 17.060 17.060v125.331h409.433v-125.331c0-9.421 7.637-17.060 17.060-17.060s17.060 7.637 17.060 17.060v125.331h216.317l71.196-642.81z" />
<glyph unicode="&#xe916;" glyph-name="other" horiz-adv-x="1070" d="M901.365 273.717c-22.879-0.012-44.683-4.605-64.547-12.91l-207.136 390.719c45.216 30.765 74.524 81.985 74.524 140.051 0 93.258-75.601 168.859-168.859 168.859s-168.859-75.601-168.859-168.859c0-58.065 29.308-109.286 73.938-139.674l-208.129-390.685c-18.845 7.896-40.745 12.483-63.717 12.483-93.258 0-168.859-75.601-168.859-168.859s75.601-168.859 168.859-168.859c87.117 0 158.825 65.972 167.892 150.682l397.212 0.742c9.251-85.334 80.902-151.171 167.93-151.171 93.258 0 168.859 75.601 168.859 168.859s-75.601 168.859-168.859 168.859c-0.005 0-0.010 0-0.015 0zM400.921 791.141c0 73.721 59.762 133.483 133.483 133.483s133.483-59.762 133.483-133.483c0-73.721-59.762-133.483-133.483-133.483s-133.483 59.762-133.483 133.483zM471.672 634.782c18.758-7.896 40.563-12.483 63.44-12.483s44.682 4.588 64.545 12.893l207.138-390.719c-40.229-27.46-67.74-71.004-73.277-121.169l-396.98-0.759c-5.605 50.923-33.116 94.467-72.764 121.553zM168.859-28.625c-73.721 0-133.483 59.762-133.483 133.483s59.762 133.483 133.483 133.483c73.721 0 133.483-59.762 133.483-133.483s-59.762-133.483-133.483-133.483zM901.601-28.625c-73.721 0-133.483 59.762-133.483 133.483s59.762 133.483 133.483 133.483c73.721 0 133.483-59.762 133.483-133.483 0 0 0 0 0 0 0-73.721-59.762-133.483-133.483-133.483-0.083 0-0.166 0-0.249 0z" />
<glyph unicode="&#xe917;" glyph-name="all" d="M1013.106 960h-1002.213c-6.016 0-10.894-4.877-10.894-10.894v-1002.213c0-6.016 4.877-10.894 10.894-10.894h1002.213c6.016 0 10.894 4.877 10.894 10.894v1002.213c0 6.016-4.877 10.894-10.894 10.894zM21.787 938.213h479.319v-223.392h-479.319zM1002.213 463.396h-257.816v-21.787h257.816v-483.822h-479.319v348.596h-21.787v-348.596h-479.319v483.822h257.816v21.787h-257.816v229.637h479.319v-103.998h21.787v349.177h479.319z" />
<glyph unicode="&#xe918;" glyph-name="dropdown" horiz-adv-x="1810" d="M904.026-64l-904.026 904.026 119.974 119.974 784.053-785.743 785.743 785.743 119.974-119.974-905.716-904.026z" />
<glyph unicode="&#xe919;" glyph-name="loadmore-mobile" horiz-adv-x="390" d="M354.764 167.103l-134.050-134.303v927.2h-50.681v-927.2l-134.303 134.303-35.73-35.983 195.373-195.12 195.12 195.12-35.73 35.983z" />
<glyph unicode="&#xe91a;" glyph-name="design" horiz-adv-x="1452" d="M539.135 110.951c0-6.573-5.328-11.901-11.901-11.901h-241.599c-6.573 0-11.901 5.328-11.901 11.901s5.328 11.901 11.901 11.901h241.599c6.573 0 11.901-5.328 11.901-11.901zM875.708 122.853h-242.551c-6.573 0-11.901-5.328-11.901-11.901s5.328-11.901 11.901-11.901h242.551c6.573 0 11.901 5.328 11.901 11.901s-5.328 11.901-11.901 11.901zM204.229 854.077c6.573 0 11.901 5.328 11.901 11.901v82.12c0 6.573-5.328 11.901-11.901 11.901s-11.901-5.328-11.901-11.901v-82.12c0-6.573 5.328-11.901 11.901-11.901zM61.411 899.303c-2.163 2.163-5.15 3.5-8.45 3.5-6.6 0-11.95-5.35-11.95-11.95 0-3.3 1.338-6.287 3.5-8.45l63.554-63.316c2.163-2.163 5.15-3.5 8.45-3.5 6.6 0 11.95 5.35 11.95 11.95 0 3.3-1.338 6.287-3.5 8.45zM93.783 751.487h-81.882c-6.573 0-11.901-5.328-11.901-11.901s5.328-11.901 11.901-11.901h81.882c6.573 0 11.901 5.328 11.901 11.901s-5.328 11.901-11.901 11.901zM1437.218 508.935l-148.054-183.996v-323.481c0-6.573-5.328-11.901-11.901-11.901s-11.901 5.328-11.901 11.901v199.944h-75.217l-155.671-193.517c-0.977-1.248-2.162-2.282-3.512-3.063l-126.452-68.345c-1.652-0.923-3.625-1.467-5.724-1.467-6.573 0-11.901 5.328-11.901 11.901 0 1.202 0.178 2.362 0.509 3.455l39.015 137.734c0.454 1.642 1.19 3.073 2.162 4.311l87.099 108.277h-826.912v-124.727c0-6.573-5.328-11.901-11.901-11.901s-11.901 5.328-11.901 11.901v648.391c0.135 35.786 29.177 64.744 64.981 64.744 0 0 0 0 0 0h994.484c35.703-0.135 64.609-29.041 64.744-64.731v-183.295l42.369 52.842c12.516 14.548 30.948 23.704 51.519 23.704 37.466 0 67.838-30.372 67.838-67.838 0-15.41-5.138-29.619-13.794-41.009zM1265.361 511.554v139.009l-497.48-205.419 329.908-141.389zM188.757 231.156l517.713 214.226-517.713 221.605zM737.889 457.759l521.283 214.226h-1023.524zM188.757 724.351v-27.373h1076.604v27.373c-0.134 22.557-18.384 40.807-40.928 40.941h-994.497c0 0 0 0-0.001 0-22.659 0-41.043-18.301-41.178-40.928zM1034.949 224.491l47.606 58.793-344.666 148.768-499.861-206.847zM918.077-28.296l85.452 45.94-59.031 47.606zM1265.361 295.185l-56.175-69.98h56.175zM1428.173 555.351c-2.206 22.453-20.989 39.853-43.836 39.853-13.658 0-25.863-6.218-33.94-15.977l-395.663-491.841 68.79-55.699 395.366 492.244c5.915 7.373 9.493 16.842 9.493 27.146 0 1.505-0.076 2.992-0.225 4.458z" />
<glyph unicode="&#xe91b;" glyph-name="development" horiz-adv-x="1500" d="M1495.754 354.092c-0.924 5.492-4.973 9.837-10.224 11.183l-29.581 7.392c-21.674 2.1-38.48 20.223-38.48 42.271 0 9.898 3.387 19.004 9.065 26.224l16.442 27.035c1.449 2.156 2.313 4.81 2.313 7.666s-0.864 5.51-2.345 7.716c-18.725 25.619-40.64 47.534-65.469 65.704-2.985 2.073-5.642 2.961-8.506 2.961s-5.522-0.888-7.711-2.404l-27.081-16.482c-7.931-5.149-17.579-8.303-27.946-8.549-20.731 1.096-37.463 16.613-40.43 36.619l-7.4 29.72c-1.294 5.388-5.676 9.472-11.129 10.31-14.123 2.355-30.309 3.696-46.809 3.696s-32.685-1.34-48.455-3.918c-3.806-0.615-8.188-4.7-9.463-9.995l-7.39-29.577c-2.996-20.241-19.728-35.759-40.287-36.851-10.54 0.226-20.191 3.383-28.327 8.673l-26.917 16.384c-2.156 1.449-4.81 2.313-7.666 2.313s-5.51-0.864-7.716-2.345c-25.613-18.733-47.526-40.647-65.704-65.469-2.036-2.996-2.9-5.65-2.9-8.506s0.864-5.51 2.345-7.716l16.48-27.076c5.609-7.129 8.996-16.235 8.996-26.133 0-22.048-16.806-40.171-38.307-42.257l-29.658-7.385c-5.347-1.367-9.395-5.712-10.308-11.123-2.263-14.036-3.55-30.122-3.55-46.509 0-0.159 0-0.319 0-0.478 0-0.037 0-0.111 0-0.184 0-16.472 1.286-32.644 3.765-48.421 0.698-3.743 4.747-8.088 9.997-9.434l29.581-7.392c21.674-2.1 38.48-20.223 38.48-42.271 0-9.898-3.387-19.004-9.065-26.224l-16.442-27.035c-1.449-2.156-2.313-4.81-2.313-7.666s0.864-5.51 2.345-7.716c18.733-25.613 40.647-47.526 65.469-65.704 2.984-2.073 5.642-2.961 8.506-2.961s5.522 0.888 7.711 2.404l27.081 16.482c7.931 5.149 17.579 8.303 27.946 8.549 20.731-1.096 37.463-16.613 40.43-36.619l7.4-29.72c1.294-5.388 5.676-9.472 11.129-10.31 14.123-2.33 30.311-3.655 46.809-3.655s32.686 1.326 48.463 3.877c3.762 0.694 8.107 4.742 9.453 9.993l7.392 29.581c2.996 20.241 19.728 35.759 40.287 36.851 10.539-0.243 20.186-3.397 28.329-8.674l26.914-16.383c2.144-1.486 4.801-2.374 7.666-2.374s5.522 0.888 7.711 2.404c25.617 18.735 47.531 40.649 65.709 65.471 2.036 2.996 2.9 5.65 2.9 8.506s-0.864 5.51-2.345 7.716l-16.48 27.076c-5.609 7.129-8.996 16.235-8.996 26.133 0 22.048 16.806 40.171 38.307 42.257l29.658 7.385c5.347 1.367 9.395 5.712 10.308 11.123 2.3 14.128 3.607 30.319 3.607 46.815s-1.308 32.686-3.825 48.473zM1469.807 273.893l-21.524-5.307c-33.394-5.659-58.508-34.37-58.508-68.947 0-15.291 4.911-29.434 13.242-40.939l11.653-18.667c-14.032-17.728-29.625-33.228-46.865-46.719l-19.77 11.633c-11.954 7.685-26.481 12.368-42.081 12.677-34.027-1.023-61.844-26.004-67.251-58.559l-5.363-22.228c-10.047-1.295-21.67-2.034-33.465-2.034s-23.418 0.739-34.824 2.174l-3.949 21.679c-5.463 32.963-33.28 57.944-67.12 58.967-15.787-0.308-30.314-4.99-42.593-12.871l-18.545-11.304c-17.748 13.926-33.249 29.427-46.73 46.588l11.054 19.458c8.19 11.301 13.102 25.445 13.102 40.736 0 34.577-25.114 63.289-58.096 68.889l-22.231 5.365c-1.285 10.047-2.019 21.67-2.019 33.465s0.734 23.418 2.158 34.827l21.68 3.946c33.394 5.659 58.508 34.37 58.508 68.947 0 15.291-4.911 29.434-13.242 40.939l-11.359 18.667c13.703 17.498 28.909 32.799 45.729 46.155l19.431-11.069c11.944-7.713 26.479-12.401 42.090-12.677 34.019 1.024 61.835 26.005 67.242 58.559l5.363 22.228c10.047 1.295 21.67 2.034 33.465 2.034s23.418-0.739 34.824-2.174l3.949-21.679c5.463-32.963 33.28-57.944 67.12-58.967 15.789 0.275 30.323 4.963 42.588 12.869l18.55 11.306c18.561-13.993 34.734-29.604 48.839-46.962l-11.394-19.379c-8.19-11.301-13.102-25.445-13.102-40.736 0-34.577 25.114-63.289 58.096-68.889l21.936-5.365c1.31-10.001 2.060-21.57 2.064-33.314-0.242-11.993-1.198-23.518-2.832-34.824zM878.641 134.431h-790.187c-48.852 0-88.454 39.602-88.454 88.454v648.661c0 48.852 39.602 88.454 88.454 88.454h1223.021c48.852 0 88.454-39.602 88.454-88.454v-258.58h-29.485v258.58c0 32.568-26.401 58.969-58.969 58.969h-1223.021c-32.568 0-58.969-26.401-58.969-58.969v-648.661c0-32.568 26.401-58.969 58.969-58.969h790.187zM714.412-35.99h172.78v-29.485h-375.044v29.485h172.78v117.349h29.485zM173.959 405.69h490.624v-29.485h-490.624zM758.639 278.316h-584.68v29.485h584.68zM314.601 779.554l-119.707-120.887 119.413-117.938-19.46-22.998-141.526 140.936 141.526 140.347zM572.001 540.729l119.413 117.938-119.707 119.413 20.934 20.934 140.347-140.347-140.347-140.936zM533.671 822.602l-160.691-340.252-26.536 12.678 160.691 339.957zM1199.728 435.764c-70.998 0-128.553-57.555-128.553-128.553s57.555-128.553 128.553-128.553c70.998 0 128.553 57.555 128.553 128.553-0.167 70.93-57.623 128.386-128.537 128.553zM1199.728 207.848c-54.714 0-99.068 44.354-99.068 99.068s44.354 99.068 99.068 99.068c54.714 0 99.068-44.354 99.068-99.068-0.334-54.52-44.525-98.607-99.052-98.773z" />
<glyph unicode="&#xe91c;" glyph-name="responsive" horiz-adv-x="1714" d="M861.098 882.785c0-8.277-6.71-14.987-14.987-14.987s-14.987 6.71-14.987 14.987c0 8.277 6.71 14.987 14.987 14.987s14.987-6.71 14.987-14.987zM1648.239 831.308h-94.809v82.754c0 25.371-20.567 45.938-45.938 45.938h-1323.087c-25.231-0.185-45.612-20.681-45.612-45.937 0 0 0-0.001 0-0.001v-814.508h-122.502c-8.997 0-16.29-7.293-16.29-16.29v-62.88c0.547-29.628 24.693-53.436 54.4-53.436 0.232 0 0.464 0.001 0.696 0.004h1215.537c11.739-18.327 31.997-30.3 55.051-30.3 0.003 0 0.007 0 0.010 0h322.871c35.987 0 65.161 29.173 65.161 65.161v762.706c0.013 0.485 0.020 1.057 0.020 1.63 0 35.987-29.173 65.161-65.161 65.161-0.122 0-0.243 0-0.365-0.001zM1292.462 684.37h388.683v-586.446h-388.683zM1681.145 764.518v-48.871h-388.683v48.871c0 17.994 14.587 32.58 32.58 32.58h322.871c0.194 0.004 0.422 0.007 0.652 0.007 17.994 0 32.58-14.587 32.58-32.58 0-0.002 0-0.005 0-0.007zM184.405 927.42h1323.087c7.236-0.182 13.032-6.091 13.032-13.354 0-0.001 0-0.003 0-0.004v-82.754h-1349.152v82.754c0 0.001 0 0.003 0 0.004 0 7.263 5.796 13.172 13.015 13.354zM171.373 798.727h1099.261c-5.619-9.316-8.994-20.541-9.122-32.544v-666.956h-1090.138zM55.061-0.794c-0.206-0.007-0.447-0.011-0.69-0.011-11.601 0-21.088 9.050-21.788 20.475l-0.003 46.977h1227.301v-65.161s0-1.629 0-2.606zM1648.239-31.094h-322.871c-12.673 0.105-23.61 7.429-28.911 18.056-0.485 1.674-1.042 2.974-1.754 4.17-1.259 3.098-2.082 6.771-2.239 10.615l-0.002 65.225h388.683v-65.161c0.004-0.194 0.007-0.424 0.007-0.653 0-17.994-14.587-32.58-32.58-32.58-0.117 0-0.234 0.001-0.35 0.002zM1517.592 20.709c0-16.734-13.128-30.3-29.322-30.3s-29.322 13.566-29.322 30.3c0 16.734 13.128 30.3 29.322 30.3s29.322-13.566 29.322-30.3zM1515.963 771.686h-57.993c-8.997 0-16.29-7.293-16.29-16.29s7.293-16.29 16.29-16.29h57.993c8.997 0 16.29 7.293 16.29 16.29s-7.293 16.29-16.29 16.29z" />
<glyph unicode="&#xe91d;" glyph-name="janis" d="M691.272 748.937l-155.369-54.26v-345.875c0.184-3.758 0.288-8.161 0.288-12.588 0-31.687-5.357-62.123-15.215-90.452-2.768-6.667-6.301-13.906-10.339-20.813-19.747 8.115-36.212 21.568-47.172 38.854-15.874 27.934-25.363 60.785-26.039 95.794l-0.003 0.2v23.903l-27.488-9.083-127.641-44.698c2.151-103.021 41.113-167.32 110.192-180.228 9.469-1.94 20.367-3.069 31.522-3.107 0.737-0.014 1.572-0.021 2.408-0.021 21.225 0 41.294 4.949 59.117 13.756 14.461 8.713 27.142 20.48 36.968 34.406 8.514-1.276 18.013-2.232 27.733-2.247h0.012c0.374-0.004 0.815-0.006 1.257-0.006 21.386 0 41.596 5.033 59.511 13.98 29.125 16.835 51.754 43.803 62.988 76.105 10.643 30.022 16.621 63.508 16.621 98.39 0 4.752-0.111 9.479-0.33 14.177l0.025 295.97zM470.409 184.829c-14.344-6.577-31.119-10.412-48.789-10.412-9.053 0-17.871 1.007-26.348 2.914-65.652 12.518-82.623 84.943-86.208 136.813l100.631 35.376c1.827-37.010 12.422-71.187 29.732-100.978 12.428-20.113 31.237-36.614 53.639-46.442-5.906-7.027-13.634-12.694-22.151-17.037zM648.964 292.392c-9.378-26.859-27.483-48.68-50.854-62.569-13.992-6.941-29.83-10.828-46.576-10.828-0.621 0-1.242 0.005-1.86 0.016l0.093-0.001h-11.234c2.52 4.748 5.252 10.732 7.676 16.87 10.794 30.326 16.772 63.812 16.772 98.694 0 4.752-0.111 9.479-0.33 14.177l0.025 325.609 99.914 34.898v-314.801c0.27-4.563 0.424-9.9 0.424-15.273 0-31.046-5.142-60.891-14.622-88.73zM512-64c-282.77 0-512 229.23-512 512s229.23 512 512 512c282.77 0 512-229.23 512-512-0.408-282.606-229.394-511.592-511.961-512zM512 933.946c-268.38 0-485.946-217.565-485.946-485.946s217.565-485.946 485.946-485.946c268.38 0 485.946 217.565 485.946 485.946-0.408 268.217-217.73 485.539-485.907 485.946z" />
<glyph unicode="&#xe91e;" glyph-name="slideproject" horiz-adv-x="433" d="M384.103-64l-384.103 512 384.103 512 49.349-37.012-356.138-474.988 356.138-474.988-49.349-37.012z" />
<glyph unicode="&#xe91f;" glyph-name="slideproject2" horiz-adv-x="433" d="M49.349 960l384.103-512-384.103-512-49.349 37.012 356.138 474.988-356.138 474.988 49.349 37.012z" />
<glyph unicode="&#xe920;" glyph-name="allprojects" d="M1013.106 960h-1002.213c-6.016 0-10.894-4.877-10.894-10.894v-1002.213c0-6.016 4.877-10.894 10.894-10.894h1002.213c6.016 0 10.894 4.877 10.894 10.894v1002.213c0 6.016-4.877 10.894-10.894 10.894zM1002.213 463.396h-479.319v474.816h479.319zM21.787 693.034h479.319v-229.637h-479.319zM501.106 938.213v-223.392h-479.319v223.392zM21.787 441.609h479.319v-483.822h-479.319zM522.894-42.213v483.822h479.319v-483.822z" />
<glyph unicode="&#xe921;" glyph-name="visitsite" horiz-adv-x="2706" d="M2705.524 448l-658.286-512-93.714 120.381 408.381 315.429h-2361.905v152.381h2361.905l-407.619 315.429 93.714 120.381z" />
<glyph unicode="&#xe922;" glyph-name="nextprevious" horiz-adv-x="3102" d="M2589.795 960l-83.112-83.112 370.083-370.083h-2876.766v-117.611h2876.766l-370.083-370.083 83.112-83.112 512 512-512 512z" />
<glyph unicode="&#xe923;" glyph-name="expand" d="M0 618.667v248.036c0 51.527 41.771 93.298 93.298 93.298h248.036c15.374-2.147 27.079-15.209 27.079-31.004s-11.705-28.858-26.915-30.986l-235.116-0.019 334.507-336.213c2.573-4.446 4.092-9.78 4.092-15.469 0-17.28-14.009-31.289-31.289-31.289-5.689 0-11.024 1.518-15.62 4.172l-336.062 334.995v-235.52c0.181-1.265 0.284-2.725 0.284-4.209 0-17.28-14.009-31.289-31.289-31.289s-31.289 14.009-31.289 31.289c0 1.485 0.103 2.945 0.303 4.374zM415.289 386.56c-7.187-0.982-13.468-4.277-18.2-9.097l-335.080-335.080v234.951c0.004 0.175 0.006 0.382 0.006 0.589 0 16.882-13.37 30.642-30.1 31.267l-4.039 0.002c-15.753-1.774-27.885-15.022-27.885-31.103 0-0.265 0.003-0.53 0.010-0.794l-0.001-247.996c0-51.527 41.771-93.298 93.298-93.298h248.036c15.374 2.147 27.079 15.209 27.079 31.004s-11.705 28.858-26.915 30.986l-235.685 0.019 335.076 336.213c5.837 5.69 9.458 13.629 9.458 22.415 0 17.28-14.009 31.289-31.289 31.289-1.328 0-2.638-0.083-3.922-0.243zM993.849 309.191h-3.982c-15.749-1.778-27.876-15.024-27.876-31.102 0-0.066 0-0.131 0.001-0.197v-234.941l-336.213 334.507c-5.774 6.729-14.287 10.966-23.79 10.966-17.28 0-31.289-14.009-31.289-31.289 0-9.645 4.364-18.271 11.225-24.010l335.125-335.116h-234.382c-1.265 0.181-2.725 0.284-4.209 0.284-17.28 0-31.289-14.009-31.289-31.289s14.009-31.289 31.289-31.289c1.485 0 2.945 0.103 4.374 0.303l249.008-0.019c51.035 0.642 92.16 42.164 92.16 93.291 0 0.002 0 0.005 0 0.007v248.035c0.004 0.175 0.006 0.382 0.006 0.589 0 16.882-13.37 30.642-30.1 31.267zM930.702 960h-250.88c-14.813-2.656-25.909-15.444-25.909-30.823 0-16.388 12.599-29.833 28.639-31.178l235.065-0.008-334.507-336.213c-7.978-5.745-13.111-15.006-13.111-25.467 0-17.28 14.009-31.289 31.289-31.289 9.889 0 18.707 4.588 24.441 11.751l0.048 0.062 335.076 335.076v-233.244c0-17.437 14.136-31.573 31.573-31.573s31.573 14.136 31.573 31.573v248.036c0 51.527-41.771 93.298-93.298 93.298z" />
<glyph unicode="&#xe924;" glyph-name="visitsite-mobile" horiz-adv-x="2705" d="M2047.155 960l-92.937-119.974 405.545-315.987h-2359.762v-152.079h2359.762l-405.545-315.142 92.937-120.818 658.165 512-658.165 512z" />
<glyph unicode="&#xe925;" glyph-name="newxtproject-mobile" horiz-adv-x="3102" d="M2506.683 876.888l370.083-370.083h-2876.766v-117.611h2876.766l-370.083-370.083 83.112-83.112 512 512-512 512-83.112-83.112z" />
<glyph unicode="&#xe926;" glyph-name="preciousproject-mobile" horiz-adv-x="3102" d="M595.112 19.112l-370.083 370.083h2876.766v117.611h-2876.766l370.083 370.083-83.112 83.112-512-512 512-512 83.112 83.112z" />
<glyph unicode="&#xe927;" glyph-name="share-fb" horiz-adv-x="570" d="M409.226 922.628c25.039 0 50.079 0 74.745-2.242 16.444 0 32.888-2.99 48.584-4.485v-153.226h-100.158c-40.362 0-70.26-16.818-71.755-67.27 0-37.372 0-121.46 0-121.46h168.549c-7.474-58.674-14.949-115.107-22.423-171.912h-146.126v-428.66h-177.892v429.407h-145.378v171.165h146.499v12.333c0 34.382 0 68.391 0 102.774 0.154 23.341 2.051 46.111 5.567 68.342 7.34 50.381 35.693 95.55 76.119 125.246 35.781 25.164 79.595 39.993 126.872 39.993 0.518 0 1.037-0.002 1.554-0.005h15.243zM409.226 960h-16.070c-0.488 0.003-1.065 0.005-1.642 0.005-55.324 0-106.596-17.347-148.674-46.897-47.593-35.11-81.142-88.538-90.211-149.939-3.68-22.395-5.844-46.953-6.128-71.962-0.003-24.205-0.003-48.123-0.003-72.415v-7.474h-109.127c-20.64 0-37.372-16.732-37.372-37.372v-170.791c0-20.64 16.732-37.372 37.372-37.372h108.006v-392.409c0-20.64 16.732-37.372 37.372-37.372h177.892c20.64 0 37.372 16.732 37.372 37.372v391.288h107.632c0.094-0.001 0.206-0.001 0.317-0.001 18.928 0 34.569 14.071 37.034 32.323l7.496 57.746 14.949 114.359c0.202 1.46 0.317 3.146 0.317 4.86 0 20.64-16.732 37.372-37.372 37.372-0.112 0-0.223 0-0.334-0.001h-130.786c0 27.282 0 62.412 0 82.966s4.111 29.524 37.372 30.645h99.036c20.64 0 37.372 16.732 37.372 37.372v153.6c0 0.045 0 0.098 0 0.152 0 19.456-14.867 35.44-33.861 37.209l-15.097 0.011c-11.585 0-23.171 2.616-35.13 2.99h-3.364c-23.918 0-48.584 2.242-74.745 2.242z" />
<glyph unicode="&#xe928;" glyph-name="share-tw" horiz-adv-x="1239" d="M843.493 917.825c64.623-0.063 123.016-26.687 164.858-69.543 2.216-2.543 5.361-4.147 8.881-4.263l3.815-0.001c52.085 11.466 98.17 29.809 140.18 54.365l0.683-1.225c-18.595-54.496-54.319-99.092-100.647-128.465 47.937 5.156 92.55 17.639 133.971 36.009l-2.959-1.171c-9.278-11.809-17.713-24.040-27.414-35.427-24.835-30.813-52.543-57.718-83.178-80.967-3.711-2.23-5.406-4.876-5.406-7.919 0-0.185 0.006-0.368 0.019-0.55 0.351-7.975 0.552-17.357 0.552-26.787 0-27.712-1.733-55.020-5.098-81.82-9.637-75.178-31.157-146.359-62.633-211.85-31.538-67.944-73.954-129.791-124.981-183.362-85.318-89.166-196.531-153.435-321.565-180.728-43.338-9.537-88.752-15.159-135.268-16.352l-22.007-0.019c-0.649-0.002-1.418-0.004-2.186-0.004-132.072 0-255.227 38.181-359.028 104.108l-1.909 2.176c16.653-1.88 35.958-2.952 55.512-2.952 0.056 0 0.111 0 0.167 0 0.47-0.002 1.037-0.003 1.604-0.003 111.292 0 213.642 38.284 294.6 102.4-103.83 1.791-190.269 69.23-221.080 162.045 12.151-0.907 26.712-2.438 41.612-2.537 20.759 0.029 40.815 2.642 59.959 7.533l1.695-0.364c-65.621 14.018-120.063 53.696-153.351 107.786-22.326 35.53-35.225 77.502-35.225 122.486 0 1.78 0.020 3.555 0.060 5.325 30.427-17.319 66.586-27.811 105.095-28.934-48.472 33.888-83.587 84.55-96.789 143.489-4.538 18.263-6.972 37.412-6.972 57.129 0 43.562 11.879 84.35 32.574 119.301 117.331-144.473 291.051-238.256 486.892-248.998 1.738 9.202-1.214 17.637-2.057 25.65-1.311 9.221-2.059 19.871-2.059 30.696 0 46.261 13.667 89.331 37.183 125.391 34.413 55.044 91.665 94.255 158.464 104.395 13.849 2.426 28.425 3.8 43.293 3.952zM1163.598 899.269v0zM843.493 960c-17.623-0.063-34.841-1.594-51.598-4.478-78.776-12.664-146.386-59.611-186.863-125.1-27.272-42.177-43.088-92.328-43.088-146.174 0-4.030 0.089-8.038 0.264-12.025-165.925 22.563-308.986 106.329-407.788 227.588-8.427 11.112-20.104 17.599-33.313 18.013l-4.283 0.002c-14.322-1.886-26.23-10.721-32.364-22.953-23.505-39.986-37.324-87.795-37.324-138.831 0-22.349 2.65-44.079 7.653-64.893 5.18-22.719 13.161-44.393 23.545-64.632-19.288-3.123-32.802-19.672-32.802-39.377 0-0.432 0.006-0.862 0.019-1.291-0.011-0.792-0.017-1.803-0.017-2.814 0-54.144 15.721-104.617 42.848-147.101 14.456-23.102 32.048-43.913 52.203-61.915-6.204-7.623-10.16-17.361-10.16-28.022 0-4.075 0.578-8.015 1.656-11.743 24.28-76.964 79.548-138.293 150.851-170.232l-18.496-9.556c-48.36-20.54-104.606-32.478-163.641-32.478-0.592 0-1.184 0.001-1.776 0.004-17.996 0.092-35.724 1.162-53.17 3.16l-3.674-0.208c-22.574-0.908-40.53-19.428-40.53-42.143 0-13.769 6.598-25.997 16.806-33.694l7.699-5.138c107.632-68.021 238.624-108.389 379.045-108.389 0.185 0 0.37 0 0.556 0h22.324c50.377 1.392 98.528 7.466 145.070 17.813 132.434 29.26 250.766 97.639 341.83 192.412 54.753 56.754 100.386 122.349 134.551 194.438 33.357 69.549 56.209 145.138 66.449 224.677 3.917 29.885 5.93 60.152 5.93 90.889 0 3.154-0.021 6.303-0.063 9.447 29.86 22.84 56.13 48.307 79.47 76.302 7.415 8.836 13.741 17.27 20.067 26.127l8.435 11.387c5.888 7.195 9.455 16.486 9.455 26.611 0 23.292-18.882 42.175-42.175 42.175-0.656 0-1.308-0.015-1.956-0.045l-6.656 0.003c5.039 9.607 10.161 21.299 14.527 33.353 2.658 6.813 3.822 12.323 3.822 18.104 0 23.071-18.525 41.815-41.511 42.17h-0.033c-7.885-0.135-15.271-2.148-21.768-5.609l-4.802-2.826c-31.695-17.761-68.393-32.254-107.107-41.571-50.459 42.334-113.724 68.609-183.125 68.609-1.755 0-3.505-0.017-5.252-0.050z" />
<glyph unicode="&#xe929;" glyph-name="share-mail" horiz-adv-x="1513" d="M1512.213 939.677c0.075 0.693 0.118 1.496 0.118 2.309s-0.043 1.617-0.127 2.408c0.071 0.524 0.106 1.248 0.106 1.98s-0.035 1.455-0.105 2.169l0.007 2.681-9.238 4.157-3.233 2.309h-1477.571l-4.157 2.309h-4.619l-3.233-4.619-4.157-2.771c-0.028-0.414-0.043-0.898-0.043-1.386s0.016-0.971 0.047-1.451c-2.345-1.303-4.331-2.995-5.978-4.979-0.122-0.799-0.175-1.682-0.175-2.577s0.053-1.778 0.156-2.645c-0.038-0.309-0.054-0.793-0.054-1.281s0.016-0.971 0.048-1.451l-0.003-977.746c0-12.755 10.34-23.094 23.094-23.094h1466.486c12.755 0 23.094 10.34 23.094 23.094v977.811c-0.106 1.053-0.269 1.996-0.492 2.916zM46.189-17.811v904.834l273.898-230.943c4.010-3.446 9.266-5.544 15.011-5.544 12.755 0 23.095 10.34 23.095 23.095 0 7.010-3.123 13.29-8.053 17.526l-263.767 222.655h1336.235l-283.136-222.629c-5.424-4.285-8.874-10.862-8.874-18.244 0-12.809 10.384-23.192 23.192-23.192 5.426 0 10.417 1.863 14.367 4.985l298.329 234.601v-907.143zM908.067 729.057c-46.347 26.221-101.781 41.672-160.825 41.672-2.892 0-5.776-0.037-8.65-0.111 0.225 0.009-0.011 0.009-0.247 0.009-31.137 0-61.29-4.215-89.919-12.105-28.427-7.947-55.274-19.138-80.3-33.186-24.594-13.781-47.362-30.956-67.474-50.814-20.372-20.112-38.126-42.865-52.708-67.706-13.96-24.544-24.735-51.159-31.78-79.253-7.42-27.696-11.415-56.974-11.415-87.184s3.995-59.488 11.486-87.333c7.854-28.569 19.214-55.585 33.612-80.632 28.786-48.739 69.879-89.536 119-118.019 49.558-28.165 106.993-44.27 168.189-44.27 0.697 0 1.393 0.002 2.089 0.006 0.71-0.008 1.677-0.012 2.644-0.012 45.374 0 88.566 9.347 127.754 26.22l-22.886 49.541c-30.361-14.312-65.948-22.667-103.487-22.667-1.453 0-2.903 0.013-4.35 0.037-152.838-0.003-276.914 124.073-276.914 277.128s124.076 277.131 277.131 277.131c153.055 0 277.131-124.076 277.131-277.131 0-85.449-22.171-128.866-66.050-128.866-36.951 0-55.888 24.942-55.888 73.902v211.544h-49.422v-38.798h-10.161c-25.588 30.31-63.607 49.43-106.091 49.43-0.537 0-1.074-0.003-1.61-0.009-0.23 0.003-0.599 0.004-0.968 0.004-44.575 0-84.667-19.192-112.464-49.763-28.78-30.811-46.383-72.155-46.383-117.609 0-1.891 0.030-3.774 0.091-5.65-0.062-1.357-0.093-3.274-0.093-5.198 0-45.572 17.6-87.033 46.373-117.957 28.286-30.097 68.491-48.909 113.089-48.909 1.453 0 2.902 0.020 4.345 0.060 1.308-0.066 3.093-0.102 4.886-0.102 47.075 0 88.479 24.285 112.366 61.010l4.935 6.985 3.695-6.928c15.119-36.088 50.15-60.979 90.994-60.979 0.486 0 0.972 0.004 1.456 0.011 1.391-0.073 3.108-0.115 4.833-0.115 36.211 0 68.172 18.196 87.238 45.944 21.588 33.609 34.276 74.194 34.276 117.742 0 4.202-0.118 8.376-0.351 12.519-0.115 60.69-17.273 117.918-46.97 166.669-27.625 51.19-68.806 93.705-118.713 122.936zM836.475 391.881c-5.343-14.219-13.195-26.378-23.112-36.507-9.69-9.695-21.175-17.629-33.909-23.256-13.549-5.711-28.472-8.866-44.132-8.866s-30.583 3.155-44.168 8.865c-26.154 11.256-46.922 32.775-57.201 59.5-5.267 14.481-8.171 30.359-8.171 46.916s2.904 32.435 8.23 47.153c10.627 26.266 31.694 47.484 58.11 58.361 13.541 5.687 28.464 8.842 44.124 8.842s30.583-3.155 44.168-8.865c12.697-5.628 24.183-13.563 33.89-23.275 9.948-10.235 17.81-22.554 22.863-36.235 5.253-14.47 8.156-30.349 8.156-46.905s-2.904-32.435-8.23-47.153z" />
<glyph unicode="&#xe92a;" glyph-name="arrow-blog" horiz-adv-x="2027" d="M2027.345 515.922h-1723.879l425.806 337.626-84.208 106.452-645.064-512.397 645.064-511.603 84.208 106.452-425.806 337.626h1723.879v135.845z" />
<glyph unicode="&#xe92b;" glyph-name="arrow-nextarticle" horiz-adv-x="4670" d="M4157.942 960l-83.112-83.112 370.083-370.083h-4444.913v-117.611h4444.913l-370.083-370.083 83.112-83.112 512 512-512 512z" />
<glyph unicode="&#xe92c;" glyph-name="arrow-previousarticle" horiz-adv-x="4670" d="M512-64l83.112 83.112-370.083 370.083h4444.913v117.611h-4444.913l370.083 370.083-83.112 83.112-512-512 512-512z" />
<glyph unicode="&#xe92d;" glyph-name="nextproject-mobile" horiz-adv-x="3102" d="M2589.795 960l-83.112-83.112 370.083-370.083h-2876.766v-117.611h2876.766l-370.083-370.083 83.112-83.112 512 512-512 512z" />
<glyph unicode="&#xe92e;" glyph-name="previousproject-mobile" horiz-adv-x="3102" d="M512-64l83.112 83.112-370.083 370.083h2876.766v117.611h-2876.766l370.083 370.083-83.112 83.112-512-512 512-512z" />
</font>
</defs>
</svg>
